<svg width="10" height="11" viewBox="0 0 10 11" fill="none" xmlns="http://www.w3.org/2000/svg">
<path fill-rule="evenodd" clip-rule="evenodd" d="M9.47157 1.97141C9.73192 1.71107 9.73192 1.28896 9.47157 1.02861C9.21122 0.768256 8.78911 0.768256 8.52876 1.02861L5.00016 4.5572L1.47157 1.02861C1.21122 0.768256 0.789108 0.768256 0.528758 1.02861C0.268409 1.28896 0.268409 1.71107 0.528758 1.97141L4.05735 5.50001L0.528758 9.02861C0.268409 9.28896 0.268409 9.71107 0.528758 9.97141C0.789108 10.2318 1.21122 10.2318 1.47157 9.97141L5.00016 6.44282L8.52876 9.97141C8.78911 10.2318 9.21122 10.2318 9.47157 9.97141C9.73192 9.71107 9.73192 9.28896 9.47157 9.02861L5.94297 5.50001L9.47157 1.97141Z" fill="#464646"/>
</svg>
